<svg xmlns="http://www.w3.org/2000/svg" xmlns:xlink="http://www.w3.org/1999/xlink" version="1.1" width="3172.910662824208" height="985.5907780979828">
			
			<g transform="scale(8.645533141210375) translate(10, 10)">
				<defs id="SvgjsDefs4746"></defs><g id="SvgjsG4747" featureKey="root" fill="#ffffff"></g><g id="SvgjsG4748" featureKey="symbol1" fill="#ffffff" transform="matrix(1.0494753103859742,0,0,1.0494753103859742,10,10)"><path d="M0,33.3C0,59.1,20.9,80,46.7,80v-6.7c-22.1,0-40-17.9-40-40H0z"></path><path d="M46.7,6.7C31.9,6.7,20,18.6,20,33.3C20,48.1,31.9,60,46.7,60v6.7c-18.4,0-33.3-14.9-33.3-33.3C13.3,14.9,28.3,0,46.7,0V6.7z"></path><path d="M60,33.3C60,26,54,20,46.7,20c-7.4,0-13.3,6-13.3,13.3s6,13.3,13.3,13.3v6.7c-11,0-20-9-20-20c0-11,9-20,20-20c11,0,20,9,20,20L60,33.3z"></path></g><g id="SvgjsG4749" featureKey="text1" fill="#ffffff" transform="matrix(4.010694921263863,0,0,4.010694921263863,99.99516276067149,1.9465273061290524)"><path d="M14.22 5.380000000000001 c0.14 0.24 0.12 0.52 -0.04 0.74 l-5.54 8 l0 5.14 c0 0.38 -0.32 0.7 -0.7 0.7 l-1.54 0 c-0.4 0 -0.72 -0.32 -0.72 -0.7 l0 -5.86 c0 -0.14 0.06 -0.28 0.14 -0.4 l5.34 -7.7 c0.12 -0.18 0.34 -0.3 0.58 -0.3 l1.86 0 c0.26 0 0.5 0.14 0.62 0.38 z M5.8 9.78 c-0.12 0.24 -0.36 0.38 -0.62 0.38 l-1.86 0 c-0.24 0 -0.46 -0.12 -0.6 -0.3 l-2.6 -3.74 c-0.14 -0.22 -0.16 -0.5 -0.04 -0.74 s0.36 -0.38 0.62 -0.38 l1.88 0 c0.22 0 0.44 0.12 0.58 0.3 l2.6 3.74 c0.14 0.22 0.16 0.5 0.04 0.74 z M27.78 5 c0.38 0 0.7 0.32 0.7 0.7 l0 7.56 c0 1.94 -0.6 3.54 -1.78 4.76 c-1.18 1.2 -2.72 1.82 -4.58 1.82 s-3.38 -0.62 -4.56 -1.82 c-1.18 -1.22 -1.78 -2.82 -1.78 -4.76 l0 -7.56 c0 -0.38 0.32 -0.7 0.7 -0.7 l1.5 0 c0.38 0 0.7 0.32 0.7 0.7 l0 7.6 c0 1.24 0.34 2.18 1.06 2.84 c0.6 0.56 1.38 0.84 2.38 0.84 c0.98 0 1.78 -0.28 2.4 -0.84 c0.7 -0.66 1.06 -1.58 1.06 -2.84 l0 -7.6 c0 -0.38 0.3 -0.7 0.68 -0.7 l1.52 0 z M43.400000000000006 5 c0.38 0 0.7 0.32 0.7 0.7 l0 7.56 c0 1.94 -0.6 3.54 -1.78 4.76 c-1.18 1.2 -2.72 1.82 -4.58 1.82 s-3.38 -0.62 -4.56 -1.82 c-1.18 -1.22 -1.78 -2.82 -1.78 -4.76 l0 -7.56 c0 -0.38 0.32 -0.7 0.7 -0.7 l1.5 0 c0.38 0 0.7 0.32 0.7 0.7 l0 7.6 c0 1.24 0.34 2.18 1.06 2.84 c0.6 0.56 1.38 0.84 2.38 0.84 c0.98 0 1.78 -0.28 2.4 -0.84 c0.7 -0.66 1.06 -1.58 1.06 -2.84 l0 -7.6 c0 -0.38 0.3 -0.7 0.68 -0.7 l1.52 0 z M60.800000000000004 5 c0.38 0 0.7 0.32 0.7 0.7 l0 13.28 c0 0.38 -0.32 0.7 -0.7 0.7 l-1.5 0 c-0.38 0 -0.7 -0.32 -0.7 -0.7 l0 -8.96 l-3.68 4.72 c-0.12 0.16 -0.32 0.26 -0.54 0.26 l0 0 c-0.22 0 -0.42 -0.1 -0.54 -0.26 l-3.76 -4.74 l0 8.98 c0 0.38 -0.32 0.7 -0.7 0.7 l-1.5 0 c-0.38 0 -0.7 -0.32 -0.7 -0.7 l0 -13.28 c0 -0.38 0.32 -0.7 0.7 -0.7 l1.74 0 c0.22 0 0.42 0.1 0.56 0.28 l4.2 5.56 l4.12 -5.56 c0.12 -0.18 0.34 -0.28 0.56 -0.28 l1.74 0 z"></path></g>
			</g>
		</svg>